<mxGraphModel><root><mxCell id="0" /><mxCell id="1" parent="0" /><mxCell id="100" value="Expression: WriteStars(5);" style="shape=rectangle;rounded=1;" vertex="1" parent="1"><mxGeometry x="50" y="20" width="160" height="60" as="geometry" /></mxCell><mxCell id="101" value="Expression: WriteCharacters('a', 3);" style="shape=rectangle;rounded=1;" vertex="1" parent="1"><mxGeometry x="50" y="120" width="160" height="60" as="geometry" /></mxCell><mxCell id="102" value="Output: Console.WriteLine(SumOfDigits(123));" style="shape=rectangle;rounded=1;" vertex="1" parent="1"><mxGeometry x="50" y="220" width="160" height="60" as="geometry" /></mxCell><mxCell id="103" value="Output: Console.WriteLine(SubString(&quot;hello&quot;, 2, 3));" style="shape=rectangle;rounded=1;" vertex="1" parent="1"><mxGeometry x="50" y="320" width="160" height="60" as="geometry" /></mxCell><mxCell id="1000" value="next" style="edgeStyle=elbowEdgeStyle;rounded=0;html=1;" edge="1" source="100" target="101" parent="1"><mxGeometry relative="1" as="geometry" /></mxCell><mxCell id="1001" value="next" style="edgeStyle=elbowEdgeStyle;rounded=0;html=1;" edge="1" source="101" target="102" parent="1"><mxGeometry relative="1" as="geometry" /></mxCell><mxCell id="1002" value="next" style="edgeStyle=elbowEdgeStyle;rounded=0;html=1;" edge="1" source="102" target="103" parent="1"><mxGeometry relative="1" as="geometry" /></mxCell></root></mxGraphModel>